<svg id="Layer_1" data-name="Layer 1" xmlns="http://www.w3.org/2000/svg" viewBox="0 0 32 15.08"><defs><style>.cls-1{fill:#f7e7ac;}</style></defs><g id="logo"><g id="AM"><path class="cls-1" d="M6.27,12.26a17.54,17.54,0,0,1-1,1.81,5.22,5.22,0,0,1-1.15,1.56,1.34,1.34,0,0,1-.56.16,1.38,1.38,0,0,1-.81-.39,1,1,0,0,1-.49-.79,25,25,0,0,1,2.37-4.1Q5.94,8.49,7,6.44C8.43,3.82,9.29,2.23,9.62,1.79a1.27,1.27,0,0,1,1-.66,1.4,1.4,0,0,1,1.15.43c.13.09.19.31.19.65a2.54,2.54,0,0,1-.07.61C13,6.45,13.92,9,14.55,10.51a11,11,0,0,0,2,3.27,5,5,0,0,1,.6.69.83.83,0,0,1,.11.46A1.26,1.26,0,0,1,16,16.17a2,2,0,0,1-1.46-.87,9.37,9.37,0,0,1-1.4-2.36,11,11,0,0,1-.64-1.68h-.06a14.25,14.25,0,0,0-2.25.36,27.75,27.75,0,0,0-2.82.72,1.36,1.36,0,0,1-.48.09A.81.81,0,0,1,6.27,12.26Zm5.42-3c-.16-.39-.6-1.75-1.34-4.1-.07-.21-.11-.35-.14-.41L7.54,10l1.21-.19a19,19,0,0,0,2.11-.41Z" transform="translate(-2.28 -1.1)"/><path class="cls-1" d="M32,4.69,28.87,9.07c-1.45,2.1-2.57,3.15-3.34,3.15a1.2,1.2,0,0,1-1-.65,8.76,8.76,0,0,1-.87-2c-.3-.87-.51-1.55-.62-2a12.31,12.31,0,0,0-.54-1.79L22,8.32c-.15.83-.3,1.58-.46,2.26s-.33,1.52-.52,2.47-.29,1.69-.34,2.18c0,.16-.15.33-.44.52a1.34,1.34,0,0,1-.66.28,1.1,1.1,0,0,1-.87-.43,1.24,1.24,0,0,1-.4-.84,10.1,10.1,0,0,1,.38-2.37C19.76,8.46,20.35,6,20.47,5a19.64,19.64,0,0,0,.22-2.54.88.88,0,0,1,.44-.82,2.32,2.32,0,0,1,1.16-.28,1,1,0,0,1,.77.53,3,3,0,0,1,.51,1h0l1.31,3.79c.51,1.51.87,2.48,1,2.89,1.07-1.27,2.07-2.6,3-4a44.92,44.92,0,0,1,2.73-3.62c.49-.54.87-.81,1-.81a1.73,1.73,0,0,1,1,.4c.38.26.56.49.56.68s-.12,1.12-.36,2.93c-.17,1.28-.33,2.72-.46,4.3s-.21,2.52-.21,2.8a4.84,4.84,0,0,0,.13,1.08,3.74,3.74,0,0,1,.1.81,2.05,2.05,0,0,1-.32,1.32,1.35,1.35,0,0,1-1,.35q-1.23,0-1.23-1.92a34.47,34.47,0,0,1,.32-4.43c.21-1.75.4-3.08.59-4A5.08,5.08,0,0,0,32,4.69Z" transform="translate(-2.28 -1.1)"/></g></g></svg>